<?xml version="1.0" standalone="no"?>
<!DOCTYPE svg PUBLIC "-//W3C//DTD SVG 20010904//EN"
 "http://www.w3.org/TR/2001/REC-SVG-20010904/DTD/svg10.dtd">
<svg version="1.0" xmlns="http://www.w3.org/2000/svg"
 width="729.000000pt" height="495.000000pt" viewBox="0 0 729.000000 495.000000"
 preserveAspectRatio="xMidYMid meet">

<g transform="translate(0.000000,495.000000) scale(0.100000,-0.100000)"
fill="#000000" stroke="none">
<path d="M2380 4880 c-19 -10 -43 -19 -52 -20 -10 0 -18 -4 -18 -10 0 -5 -9
-10 -20 -10 -11 0 -20 -4 -20 -10 0 -5 -9 -10 -20 -10 -11 0 -20 -4 -20 -10 0
-5 -9 -10 -20 -10 -11 0 -20 -4 -20 -10 0 -5 -6 -10 -13 -10 -7 0 -82 -36
-167 -80 -85 -43 -182 -93 -215 -109 -33 -16 -98 -50 -144 -75 -47 -26 -90
-46 -97 -46 -7 0 -14 -3 -16 -7 -4 -11 -87 -53 -104 -53 -8 0 -14 -4 -14 -10
0 -5 -9 -10 -20 -10 -11 0 -20 -4 -20 -10 0 -5 -9 -10 -19 -10 -11 0 -21 -3
-23 -7 -1 -5 -55 -34 -118 -67 -274 -140 -426 -219 -434 -227 -6 -5 -18 -9
-28 -9 -10 0 -18 -4 -18 -10 0 -5 -9 -10 -20 -10 -11 0 -20 -4 -20 -10 0 -5
-9 -10 -20 -10 -11 0 -20 -4 -20 -10 0 -5 -9 -10 -19 -10 -11 0 -21 -3 -23 -8
-1 -4 -34 -23 -73 -42 -38 -19 -95 -49 -125 -66 -85 -49 -291 -154 -301 -154
-15 0 -70 -53 -85 -82 -19 -36 -18 -83 3 -116 30 -49 77 -92 99 -92 13 0 25
-4 28 -9 3 -5 20 -11 38 -14 18 -3 51 -10 73 -16 22 -5 54 -13 70 -16 17 -4
39 -10 50 -15 11 -5 34 -11 50 -15 17 -3 48 -11 70 -16 22 -6 55 -13 73 -16
18 -3 35 -9 38 -14 3 -5 20 -9 39 -9 19 0 37 -4 40 -10 3 -5 21 -10 40 -10 19
0 36 -4 39 -9 3 -5 20 -11 38 -14 18 -3 52 -10 76 -16 23 -6 60 -15 82 -21 22
-5 58 -14 80 -20 225 -56 425 -111 442 -120 10 -6 31 -10 47 -10 17 0 33 -4
36 -10 3 -5 21 -10 40 -10 19 0 36 -4 39 -9 3 -5 23 -11 43 -14 49 -6 163 -35
185 -48 10 -5 34 -9 53 -9 19 0 35 -4 35 -10 0 -5 18 -10 39 -10 22 0 42 -4
45 -9 3 -5 20 -11 38 -14 18 -4 49 -9 68 -12 19 -4 44 -10 55 -15 11 -5 34
-11 50 -15 17 -3 47 -10 68 -15 20 -6 56 -15 80 -20 23 -6 58 -15 77 -20 19
-5 123 -32 230 -60 107 -28 204 -55 215 -60 11 -5 34 -11 50 -13 51 -9 169
-38 187 -48 10 -5 31 -9 47 -9 17 0 32 -4 35 -9 3 -5 20 -11 38 -14 18 -3 56
-11 83 -17 28 -6 65 -14 83 -17 18 -3 35 -9 38 -14 3 -5 20 -9 39 -9 19 0 37
-4 40 -10 3 -5 19 -10 35 -10 16 0 31 -4 34 -9 3 -5 23 -11 43 -14 21 -3 56
-10 78 -16 74 -19 120 -30 150 -36 17 -4 39 -10 50 -15 17 -8 201 -58 370
-101 22 -5 57 -14 78 -19 20 -6 54 -14 75 -19 74 -17 86 -33 62 -81 -5 -11
-14 -29 -20 -40 -5 -11 -10 -29 -10 -40 0 -11 -4 -20 -8 -20 -4 0 -14 -21 -21
-47 -8 -27 -18 -55 -22 -63 -6 -14 -17 -39 -38 -92 -5 -13 -18 -43 -29 -68
-11 -25 -36 -86 -55 -136 -19 -50 -40 -101 -46 -113 -6 -11 -15 -30 -21 -41
-5 -11 -10 -29 -10 -40 0 -11 -4 -20 -10 -20 -5 0 -10 -9 -10 -19 0 -11 -4
-23 -10 -26 -5 -3 -10 -17 -10 -31 0 -13 -4 -24 -10 -24 -5 0 -10 -7 -10 -15
0 -8 -4 -24 -10 -35 -5 -11 -14 -29 -20 -40 -5 -11 -10 -29 -10 -40 0 -11 -4
-20 -10 -20 -5 0 -10 -7 -10 -15 0 -8 -4 -23 -9 -33 -8 -16 -17 -36 -41 -97
-5 -14 -14 -36 -20 -50 -5 -14 -14 -35 -19 -47 -5 -13 -16 -39 -24 -58 -8 -19
-30 -73 -48 -120 -18 -47 -37 -86 -41 -88 -4 -2 -8 -10 -8 -18 0 -8 -4 -22 -9
-32 -9 -17 -23 -51 -40 -94 -14 -38 -33 -82 -42 -100 -5 -10 -9 -25 -9 -33 0
-8 -4 -15 -10 -15 -5 0 -10 -6 -10 -13 0 -34 -26 -67 -52 -67 -15 0 -30 5 -33
10 -3 6 -21 10 -40 10 -19 0 -37 5 -40 10 -3 6 -24 10 -45 10 -21 0 -42 5 -45
10 -3 6 -19 10 -36 10 -16 0 -37 4 -47 9 -9 5 -84 26 -167 46 -82 20 -240 59
-350 86 -110 27 -209 54 -220 59 -11 4 -33 11 -50 15 -16 3 -46 10 -65 15 -81
21 -127 32 -158 37 -18 3 -35 9 -38 14 -3 5 -20 9 -39 9 -19 0 -37 5 -40 10
-3 5 -21 10 -40 10 -19 0 -36 4 -39 9 -3 5 -23 11 -43 14 -53 7 -94 17 -118
27 -11 5 -33 11 -50 15 -16 3 -48 10 -70 16 -38 9 -61 15 -152 39 -21 5 -51
12 -68 15 -16 4 -39 11 -50 16 -11 5 -85 25 -165 44 -80 19 -156 39 -170 44
-25 9 -81 24 -155 43 -109 27 -116 30 -136 72 -10 22 -19 48 -19 57 0 10 -4
21 -10 24 -5 3 -10 17 -10 30 0 13 -4 27 -10 30 -5 3 -10 17 -10 30 0 13 -4
27 -10 30 -5 3 -10 17 -10 30 0 13 -4 27 -10 30 -5 3 -10 17 -10 30 0 13 -4
27 -10 30 -5 3 -10 17 -10 30 0 13 -4 27 -10 30 -5 3 -10 17 -10 30 0 13 -4
27 -10 30 -5 3 -10 16 -10 29 0 12 -4 26 -8 31 -5 6 -19 44 -31 85 -13 41 -27
83 -32 92 -5 10 -9 27 -9 37 0 11 -4 23 -10 26 -5 3 -10 16 -10 29 0 12 -4 26
-9 32 -5 5 -26 61 -46 124 -21 63 -41 119 -46 124 -5 6 -9 20 -9 32 0 13 -4
26 -10 29 -5 3 -10 17 -10 30 0 13 -4 27 -10 30 -5 3 -10 17 -10 31 0 13 -4
24 -10 24 -5 0 -10 10 -10 23 0 26 -21 77 -32 77 -5 0 -8 5 -8 11 0 53 -135
61 -186 10 -58 -56 -58 -74 -8 -222 25 -74 48 -146 51 -162 3 -15 9 -30 14
-33 5 -3 9 -14 9 -25 0 -10 4 -27 9 -37 5 -9 15 -37 22 -62 7 -25 16 -49 21
-54 4 -6 8 -20 8 -32 0 -13 5 -26 10 -29 5 -3 10 -17 10 -30 0 -13 5 -27 10
-30 5 -3 10 -19 10 -36 0 -16 5 -29 10 -29 6 0 10 -13 10 -29 0 -17 4 -33 10
-36 6 -3 10 -17 10 -31 0 -13 5 -24 10 -24 6 0 10 -13 10 -29 0 -17 5 -33 10
-36 6 -3 10 -17 10 -30 0 -13 5 -27 10 -30 5 -3 10 -17 10 -30 0 -13 5 -27 10
-30 5 -3 10 -15 10 -26 0 -10 4 -27 9 -37 6 -9 27 -69 47 -132 20 -63 40 -119
44 -125 3 -5 12 -30 19 -55 17 -59 28 -82 54 -112 25 -28 118 -81 162 -92 58
-14 120 -27 153 -33 18 -3 35 -9 38 -14 3 -5 21 -9 40 -9 19 0 34 -4 34 -9 0
-5 15 -11 33 -14 17 -4 48 -9 67 -12 19 -4 44 -10 55 -15 11 -5 34 -11 50 -14
35 -6 40 -7 320 -82 251 -66 255 -67 430 -109 39 -9 78 -21 87 -26 10 -5 31
-9 47 -9 17 0 33 -5 36 -10 3 -6 21 -10 40 -10 19 0 37 -5 40 -10 3 -6 21 -10
40 -10 19 0 37 -4 40 -10 3 -5 18 -10 32 -10 27 0 84 -16 115 -31 10 -5 31 -9
47 -9 17 0 32 -4 35 -9 3 -5 23 -11 43 -14 51 -7 95 -18 408 -102 116 -31 227
-61 248 -66 20 -5 56 -14 80 -20 23 -6 67 -13 97 -16 30 -3 59 -9 64 -14 6 -5
38 -9 72 -9 77 0 119 26 154 95 14 28 28 52 31 55 3 3 12 26 20 53 7 26 16 47
19 47 4 0 13 22 20 50 7 27 17 50 22 50 4 0 8 7 8 15 0 8 4 23 9 33 5 9 14 31
21 47 7 17 16 37 19 45 4 8 14 36 22 63 7 26 17 47 21 47 4 0 8 7 8 15 0 8 4
23 9 33 5 9 13 28 18 42 18 44 35 85 44 103 5 9 30 69 55 133 24 63 49 123 53
132 5 9 14 29 20 45 6 15 16 39 22 55 6 15 15 35 20 44 5 10 9 25 9 33 0 8 5
15 10 15 6 0 10 11 10 25 0 14 4 25 8 25 5 0 15 22 22 50 7 27 17 50 22 50 4
0 8 7 8 15 0 8 9 37 21 63 12 26 24 56 29 67 24 63 44 111 74 178 14 32 26 60
26 64 0 4 14 38 31 77 17 39 35 80 39 91 4 11 17 41 29 67 12 26 21 55 21 63
0 8 5 15 10 15 6 0 10 9 10 20 0 11 5 20 10 20 6 0 10 7 10 15 0 20 45 65 65
65 8 0 15 5 15 10 0 6 9 10 20 10 11 0 20 5 20 10 0 6 9 10 19 10 11 0 21 4
23 9 2 4 35 24 73 44 39 19 117 59 175 89 58 29 107 56 108 60 2 5 12 8 23 8
10 0 19 5 19 10 0 6 9 10 20 10 11 0 20 5 20 10 0 6 9 10 20 10 11 0 20 5 20
10 0 6 9 10 20 10 11 0 20 5 20 10 0 6 9 10 19 10 11 0 21 3 23 8 2 4 59 36
128 71 182 93 253 133 267 151 7 8 13 41 13 72 0 63 -10 82 -74 136 -25 20
-70 14 -131 -18 -31 -16 -63 -30 -71 -30 -8 0 -14 -4 -14 -10 0 -5 -9 -10 -20
-10 -11 0 -20 -4 -20 -10 0 -5 -9 -10 -20 -10 -11 0 -20 -4 -20 -10 0 -5 -9
-10 -20 -10 -11 0 -20 -4 -20 -10 0 -5 -9 -10 -20 -10 -11 0 -20 -4 -20 -10 0
-5 -9 -10 -20 -10 -11 0 -20 -4 -20 -10 0 -5 -9 -10 -19 -10 -11 0 -21 -3 -23
-7 -3 -7 -176 -98 -423 -222 -49 -25 -91 -49 -93 -53 -2 -5 -12 -8 -23 -8 -10
0 -19 -4 -19 -10 0 -5 -9 -10 -20 -10 -11 0 -20 -4 -20 -10 0 -5 -9 -10 -20
-10 -11 0 -20 -4 -20 -10 0 -5 -9 -10 -20 -10 -11 0 -20 -4 -20 -10 0 -5 -25
-10 -55 -10 -30 0 -55 5 -55 10 0 6 -18 10 -39 10 -22 0 -43 5 -46 10 -3 6
-21 10 -40 10 -19 0 -37 5 -40 10 -3 6 -21 10 -40 10 -19 0 -37 4 -40 10 -3 6
-21 10 -40 10 -19 0 -36 4 -39 9 -3 5 -20 11 -38 14 -51 9 -104 22 -483 122
-227 60 -258 69 -322 85 -24 5 -60 14 -80 20 -21 5 -51 12 -68 15 -16 4 -39
10 -50 15 -11 5 -33 11 -50 14 -16 2 -50 10 -75 16 -25 6 -60 14 -78 17 -18 3
-35 9 -38 14 -3 5 -20 9 -39 9 -19 0 -36 4 -39 9 -3 5 -20 11 -38 14 -18 3
-51 10 -73 16 -22 5 -59 15 -82 21 -24 5 -60 14 -80 20 -21 5 -51 12 -68 15
-16 4 -39 11 -50 16 -17 7 -244 67 -375 99 -98 23 -168 41 -196 50 -17 6 -40
10 -52 10 -11 0 -24 5 -27 10 -3 6 -21 10 -40 10 -19 0 -37 5 -40 10 -3 6 -21
10 -40 10 -19 0 -37 5 -40 10 -3 6 -21 10 -40 10 -19 0 -37 5 -40 10 -3 6 -22
10 -41 10 -19 0 -34 5 -34 10 0 6 -18 10 -40 10 -22 0 -40 5 -40 10 0 6 -15
10 -34 10 -19 0 -38 5 -41 10 -3 6 -21 10 -40 10 -19 0 -37 5 -40 10 -3 6 -21
10 -40 10 -19 0 -37 5 -40 10 -3 6 -21 10 -40 10 -19 0 -37 5 -40 10 -3 6 -19
10 -36 10 -16 0 -37 4 -47 10 -9 5 -82 26 -162 45 -80 20 -153 41 -162 46 -10
5 -25 9 -35 9 -9 0 -30 4 -47 9 -17 5 -50 14 -73 20 -81 21 -128 35 -135 40
-15 13 25 43 105 79 20 9 37 20 37 24 0 5 9 8 19 8 11 0 21 3 23 8 3 6 157 87
393 207 44 22 82 43 83 47 2 5 12 8 23 8 10 0 19 5 19 10 0 6 9 10 20 10 11 0
20 5 20 10 0 6 9 10 20 10 11 0 20 5 20 10 0 6 9 10 19 10 11 0 21 3 23 8 3 6
75 44 573 296 99 50 182 94 183 98 2 5 9 8 16 8 7 0 79 34 160 76 l147 75 157
-37 c86 -20 162 -40 167 -44 6 -4 26 -10 45 -13 19 -3 53 -10 75 -16 41 -10
84 -21 165 -41 25 -6 60 -14 78 -17 18 -3 35 -9 38 -14 3 -5 20 -9 39 -9 19 0
36 -4 39 -9 3 -5 23 -11 43 -14 21 -3 56 -10 78 -16 88 -22 131 -33 163 -38
18 -3 35 -9 38 -14 3 -5 20 -9 39 -9 19 0 37 -4 40 -10 3 -5 21 -10 40 -10 19
0 37 -4 40 -10 3 -5 19 -10 36 -10 16 0 37 -4 47 -10 14 -8 128 -38 472 -125
122 -30 135 -33 180 -45 25 -6 59 -16 76 -21 17 -5 40 -9 52 -9 11 0 24 -4 27
-10 3 -5 21 -10 40 -10 19 0 37 -4 40 -10 3 -5 21 -10 40 -10 19 0 37 -4 40
-10 3 -5 24 -10 46 -10 21 0 39 -4 39 -10 0 -5 15 -10 34 -10 19 0 37 -4 40
-9 3 -5 20 -11 38 -14 18 -3 53 -11 78 -17 25 -6 62 -14 83 -17 20 -3 37 -9
37 -14 0 -5 18 -9 39 -9 22 0 41 -4 43 -8 2 -5 93 -30 203 -56 110 -27 204
-52 210 -57 5 -5 24 -9 41 -9 18 0 36 -4 39 -10 3 -5 21 -10 40 -10 19 0 36
-4 39 -9 3 -5 20 -11 38 -14 18 -3 53 -11 78 -17 25 -6 60 -14 78 -17 18 -3
35 -9 38 -14 3 -5 20 -9 39 -9 19 0 37 -4 40 -10 3 -5 21 -10 40 -10 19 0 37
-4 40 -10 3 -5 21 -10 40 -10 19 0 36 -4 39 -9 3 -5 20 -11 38 -14 18 -3 53
-11 78 -17 25 -6 60 -14 78 -17 18 -3 35 -9 38 -14 3 -5 20 -9 39 -9 19 0 36
-4 39 -9 3 -5 20 -11 38 -14 61 -9 220 -55 232 -67 8 -8 6 -19 -8 -43 -10 -18
-50 -95 -90 -172 -39 -77 -74 -141 -78 -143 -5 -2 -8 -10 -8 -19 0 -8 -8 -27
-18 -41 -10 -15 -29 -49 -42 -77 -14 -27 -28 -51 -32 -53 -5 -2 -8 -12 -8 -23
0 -10 -4 -19 -10 -19 -5 0 -10 -9 -10 -20 0 -11 -4 -20 -10 -20 -5 0 -10 -9
-10 -19 0 -11 -4 -21 -8 -23 -7 -3 -72 -119 -156 -283 -17 -33 -34 -61 -38
-63 -5 -2 -8 -12 -8 -22 0 -10 -3 -20 -8 -22 -4 -1 -23 -34 -42 -73 -19 -38
-38 -71 -42 -73 -5 -2 -8 -12 -8 -23 0 -10 -4 -19 -10 -19 -5 0 -10 -9 -10
-20 0 -11 -3 -20 -8 -20 -4 0 -14 -15 -21 -32 -8 -18 -38 -73 -65 -123 -28
-49 -62 -112 -76 -140 -14 -27 -28 -51 -32 -53 -5 -2 -8 -12 -8 -22 0 -10 -3
-20 -8 -22 -4 -2 -23 -34 -42 -73 -19 -38 -38 -71 -42 -73 -5 -2 -8 -12 -8
-22 0 -10 -3 -20 -8 -22 -4 -1 -23 -34 -42 -73 -42 -84 -69 -112 -135 -145
-27 -14 -68 -37 -90 -51 -22 -14 -65 -39 -95 -55 -30 -16 -56 -32 -58 -36 -2
-5 -12 -8 -22 -8 -10 0 -20 -3 -22 -7 -1 -5 -25 -19 -53 -33 -27 -14 -52 -27
-55 -30 -3 -3 -24 -15 -47 -27 -24 -13 -62 -33 -85 -45 -24 -13 -45 -25 -48
-28 -3 -3 -18 -12 -35 -20 -16 -8 -42 -22 -57 -32 -14 -10 -33 -18 -41 -18 -9
0 -17 -4 -19 -8 -4 -10 -156 -102 -168 -102 -6 0 -10 -4 -10 -9 0 -5 -8 -11
-17 -14 -53 -17 -102 -58 -112 -95 -22 -75 37 -163 116 -176 36 -5 49 -1 105
32 34 21 86 49 113 62 28 14 52 27 55 30 3 3 28 16 55 30 28 14 52 28 53 33 2
4 12 7 23 7 10 0 19 3 19 8 0 4 17 15 38 24 20 10 66 34 102 54 36 20 94 52
130 72 36 19 76 42 90 51 14 9 39 23 55 31 17 8 32 17 35 20 3 3 19 12 35 20
17 8 32 17 35 20 3 3 23 14 45 26 59 30 88 47 102 61 7 6 22 15 33 18 11 3 20
11 20 16 0 5 6 9 13 9 16 0 67 44 67 59 0 6 3 11 8 11 8 0 32 48 32 66 0 7 4
14 9 16 5 2 25 37 46 78 21 41 40 77 44 80 4 3 22 37 41 75 19 39 37 72 40 75
11 11 30 51 30 64 0 8 3 16 8 18 4 2 22 32 41 68 18 36 51 99 73 140 22 41 56
107 76 145 19 39 43 81 53 95 9 14 54 97 99 185 78 150 135 259 219 417 20 37
54 103 77 145 23 43 58 109 78 146 20 38 36 75 36 82 0 7 3 15 8 17 4 1 23 32
41 68 19 36 43 79 52 95 48 79 52 92 53 150 0 33 -6 77 -13 97 -14 44 -62 98
-85 98 -9 0 -16 4 -16 9 0 5 -19 11 -42 15 -82 10 -118 18 -124 27 -3 5 -20 9
-39 9 -19 0 -37 5 -40 10 -3 6 -19 10 -36 10 -16 0 -37 4 -47 10 -9 5 -100 30
-202 55 -102 25 -194 50 -205 54 -11 5 -33 12 -50 16 -16 3 -46 10 -65 15 -92
24 -128 32 -162 37 -21 3 -38 9 -38 14 0 5 -15 9 -34 9 -19 0 -38 5 -41 10 -3
6 -21 10 -40 10 -19 0 -37 5 -40 10 -3 6 -21 10 -40 10 -19 0 -37 5 -40 10 -3
6 -21 10 -40 10 -19 0 -37 5 -40 10 -3 6 -19 10 -35 10 -16 0 -32 5 -35 10 -3
6 -21 10 -40 10 -19 0 -36 4 -39 9 -3 5 -20 11 -38 14 -79 14 -154 32 -413
102 -248 67 -280 75 -323 82 -18 3 -35 9 -38 14 -3 5 -20 9 -39 9 -19 0 -37 5
-40 10 -3 6 -21 10 -40 10 -19 0 -36 4 -39 9 -3 5 -20 11 -38 14 -18 3 -53 11
-78 17 -25 6 -60 14 -78 17 -18 3 -35 9 -38 14 -3 5 -21 9 -40 9 -19 0 -42 4
-52 9 -15 9 -51 19 -187 53 -22 5 -57 12 -78 15 -20 3 -40 9 -43 14 -3 5 -20
9 -38 9 -18 0 -36 3 -39 7 -8 7 -355 100 -442 118 -16 4 -39 10 -50 15 -11 5
-33 11 -50 13 -16 3 -66 15 -110 27 -44 12 -97 26 -117 31 -21 5 -57 14 -80
20 -24 6 -60 13 -81 16 -20 3 -40 9 -43 14 -3 5 -21 9 -40 9 -19 0 -34 4 -34
9 0 5 -15 11 -32 14 -18 3 -51 10 -73 16 -22 5 -62 15 -90 21 -27 7 -68 17
-90 22 -79 20 -157 20 -195 -2z"/>
</g>
</svg>
